#!OML:ASF F:\VICON\USERDATA\INSTALL\rory3\rory3.ASF
:FULLY-SPECIFIED
:DEGREES
17
root 1.3146 17.3326 -23.9927 -0.225358 0.61177 6.1973
lowerback 6.70816 -1.71751 -6.54449
upperback 1.59596 -2.71297 0.908289
thorax -1.75529 -1.33647 4.8322
lowerneck -12.6224 -1.58869 -9.8045
upperneck 20.0101 -1.09739 4.68023
head 8.38703 -0.790965 3.09071
rclavicle 1.5704e-014 -7.15625e-015
rhumerus -35.3498 -9.87813 -77.3484
rradius 30.205
rwrist 5.61062
rhand -10.706 12.0802
rfingers 7.12502
rthumb 15.3037 -17.3336
lclavicle 1.5704e-014 -7.15625e-015
lhumerus -25.3767 2.14719 84.2322
lradius 32.6306
lwrist -12.0096
lhand -9.82456 27.9843
lfingers 7.12502
lthumb 16.1526 57.3313
rfemur -33.0717 -2.32198 15.4406
rtibia 37.2613
rfoot -8.30246 -11.1465
rtoes 4.77073
lfemur 0.760015 -1.92944 -31.4769
ltibia 23.7477
lfoot -17.4696 3.19163
ltoes 1.49061
18
root 1.29978 17.3079 -23.8146 -0.0889001 0.800764 6.40116
lowerback 6.80432 -1.7629 -6.79271
upperback 1.58095 -2.79978 0.81801
thorax -1.80535 -1.37658 4.88839
lowerneck -13.1143 -1.5914 -9.6403
upperneck 20.2889 -1.10253 4.74028
head 8.56969 -0.775773 3.089
rclavicle 1.46107e-014 -1.90833e-014
rhumerus -35.778 -10.2904 -77.238
rradius 30.1057
rwrist 5.59866
rhand -8.6687 7.2696
rfingers 7.12502
rthumb 17.2653 -21.9835
lclavicle 1.46107e-014 -1.90833e-014
lhumerus -24.8724 1.31978 84.0959
lradius 33.1005
lwrist -11.5446
lhand -10.1871 27.8652
lfingers 7.12502
lthumb 15.8035 57.2401
rfemur -32.8939 -2.22482 15.225
rtibia 33.8605
rfoot -7.47677 -11.4896
rtoes 1.59233
lfemur 1.51982 -1.70144 -31.5998
ltibia 23.1943
lfoot -17.5555 2.93962
ltoes 1.19181
19
root 1.28333 17.2817 -23.6277 0.0337881 1.04174 6.58163
lowerback 6.79797 -1.80316 -7.07965
upperback 1.61008 -2.87229 0.793125
thorax -1.74832 -1.41489 5.0278
lowerneck -13.2741 -1.7289 -9.419
upperneck 20.1928 -1.2771 4.52198
head 8.57812 -0.859918 2.95629
rclavicle 1.32192e-014 1.03368e-014
rhumerus -36.1865 -10.7384 -76.9872
rradius 29.9372
rwrist 5.90412
rhand -10.4105 14.0282
rfingers 7.12502
rthumb 15.5883 -15.3637
lclavicle 1.32192e-014 1.03368e-014
lhumerus -24.393 0.574998 84.0709
lradius 33.5623
lwrist -11.1461
lhand -10.6263 27.7526
lfingers 7.12502
lthumb 15.3805 57.1605
rfemur -32.5789 -2.11291 14.9633
rtibia 30.4197
rfoot -7.16482 -11.7909
rtoes -0.434752
lfemur 2.33449 -1.34934 -31.6314
ltibia 22.6748
lfoot -17.7866 2.43137
ltoes 1.02774
20
root 1.27192 17.2648 -23.4399 0.336677 1.18869 6.68392
lowerback 6.41623 -1.93524 -7.33682
upperback 1.58599 -3.03447 0.890189
thorax -1.51861 -1.50418 5.26704
lowerneck -13.0759 -1.81953 -9.64362
upperneck 20.1188 -1.37597 4.53861
head 8.52746 -0.922525 2.98691
rclavicle 1.89839e-014 3.97569e-015
rhumerus -36.3833 -10.4014 -77.1203
rradius 30.3574
rwrist 5.3866
rhand -10.7987 14.7792
rfingers 7.12502
rthumb 15.2144 -14.6413
lclavicle 1.89839e-014 3.97569e-015
lhumerus -24.0624 0.25893 84.0997
lradius 34.022
lwrist -10.8065
lhand -10.8491 27.7959
lfingers 7.12502
lthumb 15.1659 57.2201
rfemur -32.389 -1.80199 14.6594
rtibia 26.9819
rfoot -7.55888 -12.1146
rtoes -0.246865
lfemur 2.9828 -1.27107 -31.6457
ltibia 22.1735
lfoot -17.9656 2.14265
ltoes 1.39375
21
root 1.26325 17.2509 -23.2572 0.579938 1.68802 6.78656
lowerback 6.18804 -2.21153 -7.49308
upperback 1.512 -3.39508 0.965728
thorax -1.40207 -1.68694 5.44529
lowerneck -12.9626 -1.87874 -10.1928
upperneck 20.3612 -1.43353 4.90886
head 8.60059 -0.960401 3.20284
rclavicle 3.47873e-015 1.03368e-014
rhumerus -36.6921 -10.5374 -76.838
rradius 29.9889
rwrist 5.76202
rhand -10.8589 16.5991
rfingers 7.12502
rthumb 15.1564 -12.8259
lclavicle 3.47873e-015 1.03368e-014
lhumerus -23.9443 0.00519073 84.0523
lradius 34.644
lwrist -10.5011
lhand -10.9839 27.866
lfingers 7.12502
lthumb 15.036 57.3001
rfemur -31.9753 -1.55538 14.2107
rtibia 23.578
rfoot -8.31364 -12.7235
rtoes 0.184645
lfemur 3.70908 -1.41285 -31.6364
ltibia 21.6572
lfoot -18.096 1.80523
ltoes 1.00573
22
root 1.25093 17.2342 -23.0719 0.668871 2.39539 6.95665
lowerback 6.18274 -2.49411 -7.59324
upperback 1.48522 -3.77894 0.903743
thorax -1.3676 -1.87894 5.45766
lowerneck -13.1052 -1.86219 -10.3775
upperneck 20.6013 -1.41395 5.16319
head 8.7089 -0.943164 3.32797
rclavicle 1.86858e-014 -1.27222e-014
rhumerus -37.0622 -11.0887 -76.5771
rradius 29.6602
rwrist 6.17613
rhand -10.768 17.7757
rfingers 7.12502
rthumb 15.244 -11.6427
lclavicle 1.86858e-014 -1.27222e-014
lhumerus -23.6025 -0.435555 83.837
lradius 34.9464
lwrist -10.253
lhand -11.1611 27.7807
lfingers 7.12502
lthumb 14.8653 57.2275
rfemur -31.2137 -1.39526 13.6615
rtibia 20.1532
rfoot -8.47745 -13.5787
rtoes 0.0502361
lfemur 4.58188 -1.52678 -31.6157
ltibia 21.2239
lfoot -18.2262 1.244
ltoes 0.302228
23
root 1.23411 17.221 -22.8807 0.728337 2.77106 6.99148
lowerback 6.00196 -2.61727 -7.6409
upperback 1.58399 -3.9279 0.857835
thorax -1.14158 -1.96576 5.42906
lowerneck -13.1883 -1.88011 -10.1622
upperneck 20.4445 -1.45926 5.09031
head 8.67183 -0.951044 3.25903
rclavicle 1.6201e-014 -7.95139e-015
rhumerus -37.3197 -11.6305 -76.4613
rradius 29.4931
rwrist 6.19084
rhand -10.7098 18.5699
rfingers 7.12502
rthumb 15.3 -10.8442
lclavicle 1.6201e-014 -7.95139e-015
lhumerus -22.9203 -0.796977 83.6342
lradius 34.956
lwrist -10.3256
lhand -11.2121 27.7514
lfingers 7.12502
lthumb 14.8162 57.2017
rfemur -30.374 -1.06954 13.3417
rtibia 16.7925
rfoot -8.22016 -14.3058
rtoes -1.83995
lfemur 5.45083 -1.42704 -31.4379
ltibia 20.8478
lfoot -18.2953 0.672525
ltoes 0.0589401
24
root 1.21857 17.2232 -22.6904 0.820996 3.08352 6.93638
lowerback 5.97633 -2.6771 -7.6771
upperback 1.52437 -4.00869 0.923674
thorax -1.16987 -2.00338 5.52266
lowerneck -12.9004 -1.97167 -10.002
upperneck 20.1601 -1.60255 4.88069
head 8.53244 -1.02485 3.13904
rclavicle 2.23633e-014 3.18055e-015
rhumerus -37.9954 -11.7718 -76.2842
rradius 29.8579
rwrist 5.88768
rhand -10.3861 18.3017
rfingers 7.12502
rthumb 15.6119 -11.0883
lclavicle 2.23633e-014 3.18055e-015
lhumerus -22.6054 -1.23672 83.6516
lradius 35.1652
lwrist -10.4711
lhand -11.3026 27.7433
lfingers 7.12502
lthumb 14.7289 57.2
rfemur -29.5681 -0.26093 12.9244
rtibia 13.7846
rfoot -8.3584 -15.4959
rtoes -3.83107
lfemur 6.18563 -1.56629 -31.2339
ltibia 20.4462
lfoot -18.1997 0.0766002
ltoes -0.165069
25
root 1.20656 17.227 -22.4993 0.833068 3.34199 6.83321
lowerback 6.08713 -2.75591 -7.6706
upperback 1.40918 -4.12462 1.03471
thorax -1.32626 -2.05145 5.65229
lowerneck -12.6658 -1.97904 -9.99257
upperneck 20.0946 -1.62126 4.79758
head 8.46875 -1.04255 3.10588
rclavicle -4.05521e-014 4.77083e-015
rhumerus -38.7021 -11.7487 -76.1043
rradius 30.1432
rwrist 5.54228
rhand -10.1876 17.9394
rfingers 7.12502
rthumb 15.803 -11.4356
lclavicle -4.05521e-014 4.77083e-015
lhumerus -22.4689 -1.73223 83.6856
lradius 35.3937
lwrist -10.278
lhand -11.3724 27.6888
lfingers 7.12502
lthumb 14.6617 57.1505
rfemur -28.6141 0.788455 12.478
rtibia 11.0808
rfoot -8.57482 -16.8132
rtoes -4.80715
lfemur 6.9479 -1.83642 -31.0319
ltibia 20.1295
lfoot -17.7798 -0.341836
ltoes 1.13845
